<svg width="103" height="103" viewBox="0 0 103 103" fill="none" xmlns="http://www.w3.org/2000/svg">
<path d="M95.6429 40.4643H62.5357V7.35714C62.5357 3.29462 59.2411 0 55.1786 0H47.8214C43.7589 0 40.4643 3.29462 40.4643 7.35714V40.4643H7.35714C3.29462 40.4643 0 43.7589 0 47.8214V55.1786C0 59.2411 3.29462 62.5357 7.35714 62.5357H40.4643V95.6429C40.4643 99.7054 43.7589 103 47.8214 103H55.1786C59.2411 103 62.5357 99.7054 62.5357 95.6429V62.5357H95.6429C99.7054 62.5357 103 59.2411 103 55.1786V47.8214C103 43.7589 99.7054 40.4643 95.6429 40.4643Z" fill="black" fill-opacity="0.15"/>
</svg>
